<svg width="21" height="20" viewBox="0 0 21 20" fill="none" xmlns="http://www.w3.org/2000/svg">
<path d="M10.8123 20C9.4471 20 8.15678 19.7375 6.94138 19.2125C5.72598 18.6875 4.66459 17.9708 3.7572 17.0625C2.84981 16.1542 2.13389 15.0917 1.60943 13.875C1.08498 12.6583 0.822754 11.3667 0.822754 10C0.822754 8.61667 1.08498 7.32083 1.60943 6.1125C2.13389 4.90417 2.84981 3.84583 3.7572 2.9375C4.66459 2.02917 5.72598 1.3125 6.94138 0.7875C8.15678 0.2625 9.4471 0 10.8123 0C12.1942 0 13.4887 0.2625 14.6958 0.7875C15.9029 1.3125 16.9601 2.02917 17.8675 2.9375C18.7749 3.84583 19.4908 4.90417 20.0153 6.1125C20.5397 7.32083 20.8019 8.61667 20.8019 10C20.8019 11.3667 20.5397 12.6583 20.0153 13.875C19.4908 15.0917 18.7749 16.1542 17.8675 17.0625C16.9601 17.9708 15.9029 18.6875 14.6958 19.2125C13.4887 19.7375 12.1942 20 10.8123 20ZM10.8123 17.95C11.2452 17.35 11.6198 16.725 11.9362 16.075C12.2525 15.425 12.5106 14.7333 12.7104 14H8.91433C9.11412 14.7333 9.37218 15.425 9.68852 16.075C10.0049 16.725 10.3795 17.35 10.8123 17.95ZM8.21505 17.55C7.91537 17 7.65314 16.4292 7.42837 15.8375C7.20361 15.2458 7.0163 14.6333 6.86646 14H3.91953C4.40236 14.8333 5.0059 15.5583 5.73014 16.175C6.45439 16.7917 7.28269 17.25 8.21505 17.55ZM13.4096 17.55C14.342 17.25 15.1703 16.7917 15.8946 16.175C16.6188 15.5583 17.2223 14.8333 17.7052 14H14.7582C14.6084 14.6333 14.4211 15.2458 14.1963 15.8375C13.9716 16.4292 13.7093 17 13.4096 17.55ZM3.07041 12H6.46687C6.41693 11.6667 6.37947 11.3375 6.35449 11.0125C6.32952 10.6875 6.31703 10.35 6.31703 10C6.31703 9.65 6.32952 9.3125 6.35449 8.9875C6.37947 8.6625 6.41693 8.33333 6.46687 8H3.07041C2.98717 8.33333 2.92473 8.6625 2.88311 8.9875C2.84148 9.3125 2.82067 9.65 2.82067 10C2.82067 10.35 2.84148 10.6875 2.88311 11.0125C2.92473 11.3375 2.98717 11.6667 3.07041 12ZM8.46479 12H13.1599C13.2099 11.6667 13.2473 11.3375 13.2723 11.0125C13.2973 10.6875 13.3097 10.35 13.3097 10C13.3097 9.65 13.2973 9.3125 13.2723 8.9875C13.2473 8.6625 13.2099 8.33333 13.1599 8H8.46479C8.41485 8.33333 8.37738 8.6625 8.35241 8.9875C8.32744 9.3125 8.31495 9.65 8.31495 10C8.31495 10.35 8.32744 10.6875 8.35241 11.0125C8.37738 11.3375 8.41485 11.6667 8.46479 12ZM15.1578 12H18.5543C18.6375 11.6667 18.7 11.3375 18.7416 11.0125C18.7832 10.6875 18.804 10.35 18.804 10C18.804 9.65 18.7832 9.3125 18.7416 8.9875C18.7 8.6625 18.6375 8.33333 18.5543 8H15.1578C15.2078 8.33333 15.2452 8.6625 15.2702 8.9875C15.2952 9.3125 15.3077 9.65 15.3077 10C15.3077 10.35 15.2952 10.6875 15.2702 11.0125C15.2452 11.3375 15.2078 11.6667 15.1578 12ZM14.7582 6H17.7052C17.2223 5.16667 16.6188 4.44167 15.8946 3.825C15.1703 3.20833 14.342 2.75 13.4096 2.45C13.7093 3 13.9716 3.57083 14.1963 4.1625C14.4211 4.75417 14.6084 5.36667 14.7582 6ZM8.91433 6H12.7104C12.5106 5.26667 12.2525 4.575 11.9362 3.925C11.6198 3.275 11.2452 2.65 10.8123 2.05C10.3795 2.65 10.0049 3.275 9.68852 3.925C9.37218 4.575 9.11412 5.26667 8.91433 6ZM3.91953 6H6.86646C7.0163 5.36667 7.20361 4.75417 7.42837 4.1625C7.65314 3.57083 7.91537 3 8.21505 2.45C7.28269 2.75 6.45439 3.20833 5.73014 3.825C5.0059 4.44167 4.40236 5.16667 3.91953 6Z" fill="#FEF7FF"/>
</svg>
