<svg width="24" height="22" viewBox="0 0 24 22" fill="none" xmlns="http://www.w3.org/2000/svg">
<path d="M2.76953 2.25H6.26589L8.60845 13.4083C8.68838 13.792 8.90731 14.1366 9.22691 14.3819C9.54651 14.6272 9.94642 14.7575 10.3566 14.75H18.8528C19.263 14.7575 19.6629 14.6272 19.9825 14.3819C20.3021 14.1366 20.521 13.792 20.601 13.4083L21.9995 6.41667H7.13998M10.6363 18.9167C10.6363 19.3769 10.245 19.75 9.76225 19.75C9.2795 19.75 8.88816 19.3769 8.88816 18.9167C8.88816 18.4564 9.2795 18.0833 9.76225 18.0833C10.245 18.0833 10.6363 18.4564 10.6363 18.9167ZM20.2513 18.9167C20.2513 19.3769 19.86 19.75 19.3772 19.75C18.8945 19.75 18.5031 19.3769 18.5031 18.9167C18.5031 18.4564 18.8945 18.0833 19.3772 18.0833C19.86 18.0833 20.2513 18.4564 20.2513 18.9167Z" stroke="#F3F3F3" stroke-width="4" stroke-linecap="round" stroke-linejoin="round"/>
</svg>
