<svg width="16" height="16" viewBox="0 0 16 16" fill="none" xmlns="http://www.w3.org/2000/svg">
<g clip-path="url(#clip0_130_5638)">
<path opacity="0.65" d="M11.5205 5.44057H10.8805V4.16057C10.8805 2.39417 9.44695 0.960571 7.68055 0.960571C5.91415 0.960571 4.48055 2.39417 4.48055 4.16057V5.44057H3.84055C3.13655 5.44057 2.56055 6.01657 2.56055 6.72057V13.1206C2.56055 13.8246 3.13655 14.4006 3.84055 14.4006H11.5205C12.2245 14.4006 12.8005 13.8246 12.8005 13.1206V6.72057C12.8005 6.01657 12.2245 5.44057 11.5205 5.44057ZM7.68055 11.2006C6.97655 11.2006 6.40055 10.6246 6.40055 9.92057C6.40055 9.21657 6.97655 8.64057 7.68055 8.64057C8.38455 8.64057 8.96055 9.21657 8.96055 9.92057C8.96055 10.6246 8.38455 11.2006 7.68055 11.2006ZM9.66455 5.44057H5.69655V4.16057C5.69655 3.06617 6.58615 2.17657 7.68055 2.17657C8.77495 2.17657 9.66455 3.06617 9.66455 4.16057V5.44057Z" fill="#49454F"/>
</g>
<defs>
<clipPath id="clip0_130_5638">
<rect width="15.36" height="15.36" fill="white" transform="translate(0 0.319946)"/>
</clipPath>
</defs>
</svg>
